# xmcd
#
# Track frame offsets: 
#        151
#        17743
#        35758
#        62599
#        81066
#        108381
#        131850
#        144663
#        169398
#        191183
#        208962
#        227120
#        266023
#
# Disc length: 3698 seconds
#
# Revision: 0
# Processed by: cddbd v1.5.2PL0 Copyright (c) Steve Scherf et al.
# Submitted via: ExactAudioCopy v0.99pb5
#
DISCID=c80e700d
DTITLE=The Bottoms Up Blues Gang - South Broadway Blues
DYEAR=2004
DGENRE=Blues
TTITLE0=Train I Ride
TTITLE1=Meet Me Out Back
TTITLE2=Catfish
TTITLE3=Key To The Highway
TTITLE4=I Don't Want No Man
TTITLE5=Ain't Nobody's Business
TTITLE6=I Don't Need You
TTITLE7=First Time Blues
TTITLE8=Just A Little Bit
TTITLE9=Smokestack Lightning
TTITLE10=Everyday I Have The Blues
TTITLE11=Who Do You Love
TTITLE12=Bonus Track
EXTD=
EXTT0=
EXTT1=
EXTT2=
EXTT3=
EXTT4=
EXTT5=
EXTT6=
EXTT7=
EXTT8=
EXTT9=
EXTT10=
EXTT11=
EXTT12=
PLAYORDER=
